<?xml version="1.0" encoding="UTF-8"?>
<svg xmlns="http://www.w3.org/2000/svg" xmlns:xlink="http://www.w3.org/1999/xlink" width="375pt" height="374.999991pt" viewBox="0 0 375 374.999991" version="1.2">
<defs>
<clipPath id="clip1">
  <path d="M 28 228 L 41 228 L 41 242 L 28 242 Z M 28 228 "/>
</clipPath>
<clipPath id="clip2">
  <path d="M 28.65625 192.285156 L 88.054688 132.886719 L 137.375 182.207031 L 77.976562 241.605469 Z M 28.65625 192.285156 "/>
</clipPath>
<clipPath id="clip3">
  <path d="M 28.550781 192.175781 L 87.945312 132.78125 L 137.796875 182.632812 L 78.402344 242.027344 Z M 28.550781 192.175781 "/>
</clipPath>
<clipPath id="clip4">
  <path d="M 65 145 L 104 145 L 104 184 L 65 184 Z M 65 145 "/>
</clipPath>
<clipPath id="clip5">
  <path d="M 28.65625 192.285156 L 88.054688 132.886719 L 137.375 182.207031 L 77.976562 241.605469 Z M 28.65625 192.285156 "/>
</clipPath>
<clipPath id="clip6">
  <path d="M 28.550781 192.175781 L 87.945312 132.78125 L 137.796875 182.632812 L 78.402344 242.027344 Z M 28.550781 192.175781 "/>
</clipPath>
<clipPath id="clip7">
  <path d="M 37 173 L 76 173 L 76 212 L 37 212 Z M 37 173 "/>
</clipPath>
<clipPath id="clip8">
  <path d="M 28.65625 192.285156 L 88.054688 132.886719 L 137.375 182.207031 L 77.976562 241.605469 Z M 28.65625 192.285156 "/>
</clipPath>
<clipPath id="clip9">
  <path d="M 28.550781 192.175781 L 87.945312 132.78125 L 137.796875 182.632812 L 78.402344 242.027344 Z M 28.550781 192.175781 "/>
</clipPath>
<clipPath id="clip10">
  <path d="M 61 159 L 137 159 L 137 232 L 61 232 Z M 61 159 "/>
</clipPath>
<clipPath id="clip11">
  <path d="M 28.65625 192.285156 L 88.054688 132.886719 L 137.375 182.207031 L 77.976562 241.605469 Z M 28.65625 192.285156 "/>
</clipPath>
<clipPath id="clip12">
  <path d="M 28.550781 192.175781 L 87.945312 132.78125 L 137.796875 182.632812 L 78.402344 242.027344 Z M 28.550781 192.175781 "/>
</clipPath>
<clipPath id="clip13">
  <path d="M 70 180 L 114 180 L 114 224 L 70 224 Z M 70 180 "/>
</clipPath>
<clipPath id="clip14">
  <path d="M 28.65625 192.285156 L 88.054688 132.886719 L 137.375 182.207031 L 77.976562 241.605469 Z M 28.65625 192.285156 "/>
</clipPath>
<clipPath id="clip15">
  <path d="M 28.550781 192.175781 L 87.945312 132.78125 L 137.796875 182.632812 L 78.402344 242.027344 Z M 28.550781 192.175781 "/>
</clipPath>
<clipPath id="clip16">
  <path d="M 111 161 L 134 161 L 134 184 L 111 184 Z M 111 161 "/>
</clipPath>
<clipPath id="clip17">
  <path d="M 28.65625 192.285156 L 88.054688 132.886719 L 137.375 182.207031 L 77.976562 241.605469 Z M 28.65625 192.285156 "/>
</clipPath>
<clipPath id="clip18">
  <path d="M 28.550781 192.175781 L 87.945312 132.78125 L 137.796875 182.632812 L 78.402344 242.027344 Z M 28.550781 192.175781 "/>
</clipPath>
</defs>
<g id="surface1">
<rect x="0" y="0" width="375" height="374.999991" style="fill:rgb(100%,100%,100%);fill-opacity:1;stroke:none;"/>
<rect x="0" y="0" width="375" height="374.999991" style="fill:rgb(100%,100%,100%);fill-opacity:1;stroke:none;"/>
<g clip-path="url(#clip1)" clip-rule="nonzero">
<g clip-path="url(#clip2)" clip-rule="nonzero">
<g clip-path="url(#clip3)" clip-rule="nonzero">
<path style=" stroke:none;fill-rule:nonzero;fill:rgb(30.589294%,35.688782%,37.649536%);fill-opacity:1;" d="M 24.085938 237.023438 L 32.265625 228.84375 L 40.503906 237.078125 L 32.324219 245.257812 Z M 24.085938 237.023438 "/>
</g>
</g>
</g>
<g clip-path="url(#clip4)" clip-rule="nonzero">
<g clip-path="url(#clip5)" clip-rule="nonzero">
<g clip-path="url(#clip6)" clip-rule="nonzero">
<path style=" stroke:none;fill-rule:nonzero;fill:rgb(83.918762%,45.098877%,41.178894%);fill-opacity:1;" d="M 70.859375 150.917969 C 63.367188 158.410156 63.410156 170.609375 70.953125 178.152344 C 73.992188 181.191406 77.773438 183 81.707031 183.609375 L 85.078125 180.238281 C 84.078125 180.046875 83.132812 179.554688 82.359375 178.777344 C 80.289062 176.707031 80.277344 173.371094 82.332031 171.316406 C 84.386719 169.265625 87.722656 169.277344 89.789062 171.34375 C 90.566406 172.121094 91.046875 173.074219 91.253906 174.066406 L 93.949219 171.371094 C 92.945312 171.175781 92.003906 170.683594 91.226562 169.90625 C 89.160156 167.839844 89.148438 164.503906 91.199219 162.449219 C 93.253906 160.394531 96.589844 160.40625 98.660156 162.476562 C 100.726562 164.542969 100.738281 167.878906 98.683594 169.933594 C 98.042969 170.574219 97.292969 171.011719 96.484375 171.246094 L 100.585938 175.347656 C 105.585938 167.882812 104.742188 157.660156 98.105469 151.023438 C 90.527344 143.46875 78.351562 143.425781 70.859375 150.917969 Z M 79.097656 173.261719 C 77.042969 175.316406 73.707031 175.304688 71.640625 173.234375 C 69.570312 171.167969 69.558594 167.832031 71.613281 165.777344 C 73.667969 163.722656 77.003906 163.734375 79.074219 165.804688 C 81.140625 167.871094 81.140625 171.21875 79.097656 173.261719 Z M 80.769531 160.828125 C 78.71875 162.882812 75.382812 162.871094 73.3125 160.804688 C 71.246094 158.734375 71.234375 155.398438 73.289062 153.34375 C 75.339844 151.292969 78.675781 151.304688 80.746094 153.371094 C 82.800781 155.449219 82.8125 158.785156 80.769531 160.828125 Z M 93.191406 159.167969 C 91.136719 161.222656 87.800781 161.210938 85.734375 159.140625 C 83.664062 157.074219 83.652344 153.738281 85.707031 151.683594 C 87.761719 149.628906 91.097656 149.640625 93.164062 151.710938 C 95.234375 153.777344 95.246094 157.113281 93.191406 159.167969 Z M 93.191406 159.167969 "/>
</g>
</g>
</g>
<g clip-path="url(#clip7)" clip-rule="nonzero">
<g clip-path="url(#clip8)" clip-rule="nonzero">
<g clip-path="url(#clip9)" clip-rule="nonzero">
<path style=" stroke:none;fill-rule:nonzero;fill:rgb(83.918762%,45.098877%,41.178894%);fill-opacity:1;" d="M 42.734375 178.59375 C 35.242188 186.082031 35.285156 198.28125 42.828125 205.828125 C 48.492188 211.492188 56.789062 212.925781 63.738281 210.117188 L 60.808594 207.1875 C 58.777344 208.503906 56.011719 208.253906 54.21875 206.460938 C 52.148438 204.394531 52.136719 201.058594 54.191406 199.003906 C 56.246094 196.949219 59.582031 196.960938 61.648438 199.027344 C 62.523438 199.902344 63.027344 201 63.164062 202.132812 L 66.191406 199.105469 C 65.058594 198.96875 63.960938 198.464844 63.085938 197.59375 C 61.019531 195.523438 61.007812 192.1875 63.0625 190.132812 C 65.113281 188.082031 68.449219 188.09375 70.519531 190.160156 C 71.390625 191.03125 71.894531 192.132812 72.03125 193.261719 L 75.472656 189.820312 C 74.921875 185.753906 73.097656 181.816406 69.96875 178.6875 C 62.425781 171.140625 50.222656 171.101562 42.734375 178.59375 Z M 50.984375 200.945312 C 48.929688 203 45.59375 202.988281 43.523438 200.921875 C 41.457031 198.851562 41.445312 195.515625 43.5 193.460938 C 45.554688 191.410156 48.886719 191.421875 50.957031 193.488281 C 53.023438 195.554688 53.035156 198.890625 50.984375 200.945312 Z M 52.644531 188.503906 C 50.589844 190.554688 47.253906 190.542969 45.183594 188.476562 C 43.117188 186.410156 43.105469 183.074219 45.160156 181.019531 C 47.214844 178.964844 50.550781 178.976562 52.617188 181.042969 C 54.6875 183.113281 54.695312 186.449219 52.644531 188.503906 Z M 65.0625 179.382812 C 67.128906 181.453125 67.140625 184.789062 65.085938 186.839844 C 63.03125 188.894531 59.699219 188.882812 57.628906 186.816406 C 55.5625 184.746094 55.550781 181.410156 57.601562 179.359375 C 59.644531 177.316406 62.992188 177.316406 65.0625 179.382812 Z M 65.0625 179.382812 "/>
</g>
</g>
</g>
<g clip-path="url(#clip10)" clip-rule="nonzero">
<g clip-path="url(#clip11)" clip-rule="nonzero">
<g clip-path="url(#clip12)" clip-rule="nonzero">
<path style=" stroke:none;fill-rule:nonzero;fill:rgb(30.589294%,35.688782%,37.649536%);fill-opacity:1;" d="M 103.460938 180.648438 L 95.261719 172.445312 L 61.863281 205.84375 L 87.925781 231.90625 L 121.324219 198.507812 L 114.605469 191.789062 L 136.011719 181.476562 L 113.671875 159.132812 Z M 103.460938 180.648438 "/>
</g>
</g>
</g>
<g clip-path="url(#clip13)" clip-rule="nonzero">
<g clip-path="url(#clip14)" clip-rule="nonzero">
<g clip-path="url(#clip15)" clip-rule="nonzero">
<path style=" stroke:none;fill-rule:nonzero;fill:rgb(100%,100%,100%);fill-opacity:1;" d="M 113.03125 198.574219 L 87.957031 223.648438 L 70.347656 206.039062 L 95.410156 180.976562 L 113.019531 198.585938 Z M 87.949219 221.265625 L 110.636719 198.578125 L 95.417969 183.359375 L 72.730469 206.046875 Z M 87.949219 221.265625 "/>
</g>
</g>
</g>
<g clip-path="url(#clip16)" clip-rule="nonzero">
<g clip-path="url(#clip17)" clip-rule="nonzero">
<g clip-path="url(#clip18)" clip-rule="nonzero">
<path style=" stroke:none;fill-rule:nonzero;fill:rgb(100%,100%,100%);fill-opacity:1;" d="M 111.625 163.425781 L 131.742188 183.546875 L 133.480469 182.691406 L 112.464844 161.675781 Z M 111.625 163.425781 "/>
</g>
</g>
</g>
</g>
</svg>
