<?xml version="1.0" encoding="utf-8"?>
<!-- Generator: Adobe Illustrator 24.3.0, SVG Export Plug-In . SVG Version: 6.00 Build 0)  -->
<svg version="1.1" id="Calque_1" xmlns="http://www.w3.org/2000/svg" xmlns:xlink="http://www.w3.org/1999/xlink" x="0px" y="0px"
	 viewBox="0 0 101.5 90" style="enable-background:new 0 0 101.5 90;" xml:space="preserve">
<style type="text/css">
	.st0{clip-path:url(#SVGID_2_);}
	.st1{clip-path:url(#SVGID_4_);}
	.st2{clip-path:url(#SVGID_6_);}
	.st3{fill:#D67369;}
	.st4{clip-path:url(#SVGID_8_);}
	.st5{clip-path:url(#SVGID_10_);}
	.st6{clip-path:url(#SVGID_12_);}
	.st7{clip-path:url(#SVGID_14_);}
	.st8{clip-path:url(#SVGID_16_);}
	.st9{clip-path:url(#SVGID_18_);}
	.st10{fill:#4E5B60;}
	.st11{clip-path:url(#SVGID_20_);}
	.st12{clip-path:url(#SVGID_22_);}
	.st13{clip-path:url(#SVGID_24_);}
	.st14{fill:#FFFFFF;}
	.st15{clip-path:url(#SVGID_26_);}
	.st16{clip-path:url(#SVGID_28_);}
	.st17{clip-path:url(#SVGID_30_);}
</style>
<g id="surface1">
	<g>
		<defs>
			<rect id="SVGID_1_" x="29.5" y="1.2" width="39" height="39"/>
		</defs>
		<clipPath id="SVGID_2_">
			<use xlink:href="#SVGID_1_"  style="overflow:visible;"/>
		</clipPath>
		<g class="st0">
			<g>
				<defs>
					
						<rect id="SVGID_3_" x="5.5" y="8.6" transform="matrix(0.7071 -0.7071 0.7071 0.7071 -16.8394 46.3383)" width="84" height="69.7"/>
				</defs>
				<clipPath id="SVGID_4_">
					<use xlink:href="#SVGID_3_"  style="overflow:visible;"/>
				</clipPath>
				<g class="st1">
					<g>
						<defs>
							
								<rect id="SVGID_5_" x="5.7" y="8.4" transform="matrix(0.7071 -0.7071 0.7071 0.7071 -16.9049 46.4965)" width="84" height="70.5"/>
						</defs>
						<clipPath id="SVGID_6_">
							<use xlink:href="#SVGID_5_"  style="overflow:visible;"/>
						</clipPath>
						<g class="st2">
							<path class="st3" d="M35.4,7.2c-7.5,7.5-7.4,19.7,0.1,27.2c3,3,6.8,4.8,10.8,5.5l3.4-3.4c-1-0.2-1.9-0.7-2.7-1.5
								c-2.1-2.1-2.1-5.4,0-7.5c2.1-2.1,5.4-2,7.5,0c0.8,0.8,1.3,1.7,1.5,2.7l2.7-2.7c-1-0.2-1.9-0.7-2.7-1.5
								c-2.1-2.1-2.1-5.4,0-7.5c2.1-2.1,5.4-2,7.5,0c2.1,2.1,2.1,5.4,0,7.5c-0.6,0.6-1.4,1.1-2.2,1.3l4.1,4.1
								c5-7.5,4.2-17.7-2.5-24.3C55-0.3,42.9-0.3,35.4,7.2z M43.6,29.5c-2.1,2.1-5.4,2-7.5,0c-2.1-2.1-2.1-5.4,0-7.5s5.4-2,7.5,0
								C45.6,24.1,45.6,27.5,43.6,29.5z M45.3,17.1c-2.1,2.1-5.4,2-7.5,0c-2.1-2.1-2.1-5.4,0-7.5c2.1-2.1,5.4-2,7.5,0
								C47.3,11.7,47.3,15,45.3,17.1z M57.7,15.4c-2.1,2.1-5.4,2-7.5,0c-2.1-2.1-2.1-5.4,0-7.5s5.4-2,7.5,0
								C59.7,10,59.7,13.4,57.7,15.4z"/>
						</g>
					</g>
				</g>
			</g>
		</g>
	</g>
	<g>
		<defs>
			<rect id="SVGID_7_" x="1.5" y="29.2" width="39" height="39"/>
		</defs>
		<clipPath id="SVGID_8_">
			<use xlink:href="#SVGID_7_"  style="overflow:visible;"/>
		</clipPath>
		<g class="st4">
			<g>
				<defs>
					
						<rect id="SVGID_9_" x="5.5" y="8.6" transform="matrix(0.7071 -0.7071 0.7071 0.7071 -16.8394 46.3383)" width="84" height="69.7"/>
				</defs>
				<clipPath id="SVGID_10_">
					<use xlink:href="#SVGID_9_"  style="overflow:visible;"/>
				</clipPath>
				<g class="st5">
					<g>
						<defs>
							
								<rect id="SVGID_11_" x="5.7" y="8.4" transform="matrix(0.7071 -0.7071 0.7071 0.7071 -16.9049 46.4965)" width="84" height="70.5"/>
						</defs>
						<clipPath id="SVGID_12_">
							<use xlink:href="#SVGID_11_"  style="overflow:visible;"/>
						</clipPath>
						<g class="st6">
							<path class="st3" d="M7.2,34.8c-7.5,7.5-7.4,19.7,0.1,27.2c5.7,5.7,14,7.1,20.9,4.3l-2.9-2.9c-2,1.3-4.8,1.1-6.6-0.7
								c-2.1-2.1-2.1-5.4,0-7.5s5.4-2,7.5,0c0.9,0.9,1.4,2,1.5,3.1l3-3c-1.1-0.1-2.2-0.6-3.1-1.5c-2.1-2.1-2.1-5.4,0-7.5
								c2.1-2.1,5.4-2,7.5,0c0.9,0.9,1.4,2,1.5,3.1l3.4-3.4c-0.6-4.1-2.4-8-5.5-11.1C26.9,27.4,14.7,27.4,7.2,34.8z M15.5,57.2
								c-2.1,2.1-5.4,2-7.5,0c-2.1-2.1-2.1-5.4,0-7.5c2.1-2.1,5.4-2,7.5,0C17.5,51.8,17.5,55.1,15.5,57.2z M17.1,44.8
								c-2.1,2.1-5.4,2-7.5,0c-2.1-2.1-2.1-5.4,0-7.5s5.4-2,7.5,0C19.2,39.4,19.2,42.7,17.1,44.8z M29.6,35.6c2.1,2.1,2.1,5.4,0,7.5
								c-2.1,2.1-5.4,2-7.5,0c-2.1-2.1-2.1-5.4,0-7.5C24.1,33.6,27.5,33.6,29.6,35.6z"/>
						</g>
					</g>
				</g>
			</g>
		</g>
	</g>
	<g>
		<defs>
			<rect id="SVGID_13_" x="25.5" y="15.2" width="76" height="73"/>
		</defs>
		<clipPath id="SVGID_14_">
			<use xlink:href="#SVGID_13_"  style="overflow:visible;"/>
		</clipPath>
		<g class="st7">
			<g>
				<defs>
					
						<rect id="SVGID_15_" x="5.5" y="8.6" transform="matrix(0.7071 -0.7071 0.7071 0.7071 -16.8394 46.3383)" width="84" height="69.7"/>
				</defs>
				<clipPath id="SVGID_16_">
					<use xlink:href="#SVGID_15_"  style="overflow:visible;"/>
				</clipPath>
				<g class="st8">
					<g>
						<defs>
							
								<rect id="SVGID_17_" x="5.7" y="8.4" transform="matrix(0.7071 -0.7071 0.7071 0.7071 -16.9049 46.4965)" width="84" height="70.5"/>
						</defs>
						<clipPath id="SVGID_18_">
							<use xlink:href="#SVGID_17_"  style="overflow:visible;"/>
						</clipPath>
						<g class="st9">
							<path class="st10" d="M68,36.9l-8.2-8.2L26.4,62.1l26.1,26.1l33.4-33.4L79.1,48l21.4-10.3L78.2,15.4L68,36.9z"/>
						</g>
					</g>
				</g>
			</g>
		</g>
	</g>
	<g>
		<defs>
			<rect id="SVGID_19_" x="34.5" y="36.2" width="44" height="44"/>
		</defs>
		<clipPath id="SVGID_20_">
			<use xlink:href="#SVGID_19_"  style="overflow:visible;"/>
		</clipPath>
		<g class="st11">
			<g>
				<defs>
					
						<rect id="SVGID_21_" x="5.5" y="8.6" transform="matrix(0.7071 -0.7071 0.7071 0.7071 -16.8394 46.3383)" width="84" height="69.7"/>
				</defs>
				<clipPath id="SVGID_22_">
					<use xlink:href="#SVGID_21_"  style="overflow:visible;"/>
				</clipPath>
				<g class="st12">
					<g>
						<defs>
							
								<rect id="SVGID_23_" x="5.7" y="8.4" transform="matrix(0.7071 -0.7071 0.7071 0.7071 -16.9049 46.4965)" width="84" height="70.5"/>
						</defs>
						<clipPath id="SVGID_24_">
							<use xlink:href="#SVGID_23_"  style="overflow:visible;"/>
						</clipPath>
						<g class="st13">
							<path class="st14" d="M77.5,54.8L52.5,79.9L34.8,62.3l25.1-25.1L77.5,54.8L77.5,54.8z M52.4,77.5l22.7-22.7L59.9,39.6
								L37.2,62.3L52.4,77.5z"/>
						</g>
					</g>
				</g>
			</g>
		</g>
	</g>
	<g>
		<defs>
			<rect id="SVGID_25_" x="75.5" y="17.2" width="23" height="23"/>
		</defs>
		<clipPath id="SVGID_26_">
			<use xlink:href="#SVGID_25_"  style="overflow:visible;"/>
		</clipPath>
		<g class="st15">
			<g>
				<defs>
					
						<rect id="SVGID_27_" x="5.5" y="8.6" transform="matrix(0.7071 -0.7071 0.7071 0.7071 -16.8394 46.3383)" width="84" height="69.7"/>
				</defs>
				<clipPath id="SVGID_28_">
					<use xlink:href="#SVGID_27_"  style="overflow:visible;"/>
				</clipPath>
				<g class="st16">
					<g>
						<defs>
							
								<rect id="SVGID_29_" x="5.7" y="8.4" transform="matrix(0.7071 -0.7071 0.7071 0.7071 -16.9049 46.4965)" width="84" height="70.5"/>
						</defs>
						<clipPath id="SVGID_30_">
							<use xlink:href="#SVGID_29_"  style="overflow:visible;"/>
						</clipPath>
						<g class="st17">
							<path class="st14" d="M76.1,19.7l20.1,20.1l1.7-0.9l-21-21L76.1,19.7z"/>
						</g>
					</g>
				</g>
			</g>
		</g>
	</g>
</g>
</svg>
